<mxfile host="app.diagrams.net" modified="2023-09-29T03:55:31.854Z" agent="Mozilla/5.0 (Macintosh; Intel Mac OS X 10_15_7) AppleWebKit/537.36 (KHTML, like Gecko) Chrome/117.0.0.0 Safari/537.36" etag="ermwW1uzh9qO8YW71pzp" version="21.8.2" type="github">
  <diagram name="Page-1" id="oblPYFJwHrxUiPrVO0b3">
    <mxGraphModel dx="1941" dy="618" grid="1" gridSize="10" guides="1" tooltips="1" connect="1" arrows="1" fold="1" page="1" pageScale="1" pageWidth="827" pageHeight="1169" math="0" shadow="0">
      <root>
        <mxCell id="0" />
        <mxCell id="1" parent="0" />
        <mxCell id="yUvTqXEQwM74-0tRDP1R-241" value="" style="group" vertex="1" connectable="0" parent="1">
          <mxGeometry x="-590" y="80" width="826" height="660" as="geometry" />
        </mxCell>
        <mxCell id="yUvTqXEQwM74-0tRDP1R-9" value="" style="group" vertex="1" connectable="0" parent="yUvTqXEQwM74-0tRDP1R-241">
          <mxGeometry y="125.71428571428571" width="92.29050279329611" height="89.04761904761904" as="geometry" />
        </mxCell>
        <mxCell id="yUvTqXEQwM74-0tRDP1R-1" value="" style="whiteSpace=wrap;html=1;aspect=fixed;" vertex="1" parent="yUvTqXEQwM74-0tRDP1R-9">
          <mxGeometry y="5.238095238095238" width="83.80952380952381" height="83.80952380952381" as="geometry" />
        </mxCell>
        <mxCell id="yUvTqXEQwM74-0tRDP1R-2" value="" style="endArrow=none;html=1;rounded=0;exitX=0;exitY=0.25;exitDx=0;exitDy=0;entryX=1;entryY=0.25;entryDx=0;entryDy=0;" edge="1" parent="yUvTqXEQwM74-0tRDP1R-9" source="yUvTqXEQwM74-0tRDP1R-1" target="yUvTqXEQwM74-0tRDP1R-1">
          <mxGeometry width="50" height="50" relative="1" as="geometry">
            <mxPoint x="23.07262569832403" y="78.57142857142857" as="sourcePoint" />
            <mxPoint x="80.75418994413408" y="26.19047619047619" as="targetPoint" />
          </mxGeometry>
        </mxCell>
        <mxCell id="yUvTqXEQwM74-0tRDP1R-3" value="START" style="text;html=1;align=center;verticalAlign=middle;resizable=0;points=[];autosize=1;strokeColor=none;fillColor=none;" vertex="1" parent="yUvTqXEQwM74-0tRDP1R-9">
          <mxGeometry x="11.536312849162014" width="60" height="30" as="geometry" />
        </mxCell>
        <mxCell id="yUvTqXEQwM74-0tRDP1R-4" value="" style="endArrow=none;html=1;rounded=0;exitX=0;exitY=0.75;exitDx=0;exitDy=0;entryX=1;entryY=0.75;entryDx=0;entryDy=0;" edge="1" parent="yUvTqXEQwM74-0tRDP1R-9">
          <mxGeometry width="50" height="50" relative="1" as="geometry">
            <mxPoint y="56.57142857142857" as="sourcePoint" />
            <mxPoint x="92.29050279329611" y="56.57142857142857" as="targetPoint" />
          </mxGeometry>
        </mxCell>
        <mxCell id="yUvTqXEQwM74-0tRDP1R-5" value="T:0, EST:0" style="text;html=1;align=center;verticalAlign=middle;resizable=0;points=[];autosize=1;strokeColor=none;fillColor=none;" vertex="1" parent="yUvTqXEQwM74-0tRDP1R-9">
          <mxGeometry y="26.19047619047619" width="80" height="30" as="geometry" />
        </mxCell>
        <mxCell id="yUvTqXEQwM74-0tRDP1R-6" value="S:0, LST:0" style="text;html=1;align=center;verticalAlign=middle;resizable=0;points=[];autosize=1;strokeColor=none;fillColor=none;" vertex="1" parent="yUvTqXEQwM74-0tRDP1R-9">
          <mxGeometry y="57.61904761904762" width="80" height="30" as="geometry" />
        </mxCell>
        <mxCell id="yUvTqXEQwM74-0tRDP1R-10" value="" style="group" vertex="1" connectable="0" parent="yUvTqXEQwM74-0tRDP1R-241">
          <mxGeometry x="149.97206703910618" y="227.33333333333331" width="92.29050279329611" height="89.04761904761904" as="geometry" />
        </mxCell>
        <mxCell id="yUvTqXEQwM74-0tRDP1R-11" value="" style="whiteSpace=wrap;html=1;aspect=fixed;" vertex="1" parent="yUvTqXEQwM74-0tRDP1R-10">
          <mxGeometry y="5.238095238095238" width="83.80952380952381" height="83.80952380952381" as="geometry" />
        </mxCell>
        <mxCell id="yUvTqXEQwM74-0tRDP1R-12" value="" style="endArrow=none;html=1;rounded=0;exitX=0;exitY=0.25;exitDx=0;exitDy=0;entryX=1;entryY=0.25;entryDx=0;entryDy=0;" edge="1" parent="yUvTqXEQwM74-0tRDP1R-10" source="yUvTqXEQwM74-0tRDP1R-11" target="yUvTqXEQwM74-0tRDP1R-11">
          <mxGeometry width="50" height="50" relative="1" as="geometry">
            <mxPoint x="23.07262569832403" y="78.57142857142857" as="sourcePoint" />
            <mxPoint x="80.75418994413408" y="26.19047619047619" as="targetPoint" />
          </mxGeometry>
        </mxCell>
        <mxCell id="yUvTqXEQwM74-0tRDP1R-13" value="SC2" style="text;html=1;align=center;verticalAlign=middle;resizable=0;points=[];autosize=1;strokeColor=none;fillColor=none;" vertex="1" parent="yUvTqXEQwM74-0tRDP1R-10">
          <mxGeometry x="17.30446927374302" width="50" height="30" as="geometry" />
        </mxCell>
        <mxCell id="yUvTqXEQwM74-0tRDP1R-14" value="" style="endArrow=none;html=1;rounded=0;exitX=0;exitY=0.75;exitDx=0;exitDy=0;entryX=1;entryY=0.75;entryDx=0;entryDy=0;" edge="1" parent="yUvTqXEQwM74-0tRDP1R-10">
          <mxGeometry width="50" height="50" relative="1" as="geometry">
            <mxPoint y="56.57142857142857" as="sourcePoint" />
            <mxPoint x="92.29050279329611" y="56.57142857142857" as="targetPoint" />
          </mxGeometry>
        </mxCell>
        <mxCell id="yUvTqXEQwM74-0tRDP1R-15" value="T:24, EST:0" style="text;html=1;align=center;verticalAlign=middle;resizable=0;points=[];autosize=1;strokeColor=none;fillColor=none;" vertex="1" parent="yUvTqXEQwM74-0tRDP1R-10">
          <mxGeometry y="26.19047619047619" width="80" height="30" as="geometry" />
        </mxCell>
        <mxCell id="yUvTqXEQwM74-0tRDP1R-16" value="S:0, LST:0" style="text;html=1;align=center;verticalAlign=middle;resizable=0;points=[];autosize=1;strokeColor=none;fillColor=none;" vertex="1" parent="yUvTqXEQwM74-0tRDP1R-10">
          <mxGeometry y="57.61904761904762" width="80" height="30" as="geometry" />
        </mxCell>
        <mxCell id="yUvTqXEQwM74-0tRDP1R-17" value="" style="group" vertex="1" connectable="0" parent="yUvTqXEQwM74-0tRDP1R-241">
          <mxGeometry x="149.97206703910618" width="98.0586592178771" height="89.04761904761904" as="geometry" />
        </mxCell>
        <mxCell id="yUvTqXEQwM74-0tRDP1R-18" value="" style="whiteSpace=wrap;html=1;aspect=fixed;" vertex="1" parent="yUvTqXEQwM74-0tRDP1R-17">
          <mxGeometry y="5.238095238095238" width="83.80952380952381" height="83.80952380952381" as="geometry" />
        </mxCell>
        <mxCell id="yUvTqXEQwM74-0tRDP1R-19" value="" style="endArrow=none;html=1;rounded=0;exitX=0;exitY=0.25;exitDx=0;exitDy=0;entryX=1;entryY=0.25;entryDx=0;entryDy=0;" edge="1" parent="yUvTqXEQwM74-0tRDP1R-17" source="yUvTqXEQwM74-0tRDP1R-18" target="yUvTqXEQwM74-0tRDP1R-18">
          <mxGeometry width="50" height="50" relative="1" as="geometry">
            <mxPoint x="23.07262569832403" y="78.57142857142857" as="sourcePoint" />
            <mxPoint x="80.75418994413408" y="26.19047619047619" as="targetPoint" />
          </mxGeometry>
        </mxCell>
        <mxCell id="yUvTqXEQwM74-0tRDP1R-20" value="SC1" style="text;html=1;align=center;verticalAlign=middle;resizable=0;points=[];autosize=1;strokeColor=none;fillColor=none;" vertex="1" parent="yUvTqXEQwM74-0tRDP1R-17">
          <mxGeometry x="17.30446927374302" width="50" height="30" as="geometry" />
        </mxCell>
        <mxCell id="yUvTqXEQwM74-0tRDP1R-21" value="" style="endArrow=none;html=1;rounded=0;exitX=0;exitY=0.75;exitDx=0;exitDy=0;entryX=1;entryY=0.75;entryDx=0;entryDy=0;" edge="1" parent="yUvTqXEQwM74-0tRDP1R-17">
          <mxGeometry width="50" height="50" relative="1" as="geometry">
            <mxPoint y="56.57142857142857" as="sourcePoint" />
            <mxPoint x="92.29050279329611" y="56.57142857142857" as="targetPoint" />
          </mxGeometry>
        </mxCell>
        <mxCell id="yUvTqXEQwM74-0tRDP1R-22" value="T:8, EST:0" style="text;html=1;align=center;verticalAlign=middle;resizable=0;points=[];autosize=1;strokeColor=none;fillColor=none;" vertex="1" parent="yUvTqXEQwM74-0tRDP1R-17">
          <mxGeometry y="26.19047619047619" width="80" height="30" as="geometry" />
        </mxCell>
        <mxCell id="yUvTqXEQwM74-0tRDP1R-23" value="S:16, LST:16" style="text;html=1;align=center;verticalAlign=middle;resizable=0;points=[];autosize=1;strokeColor=none;fillColor=none;" vertex="1" parent="yUvTqXEQwM74-0tRDP1R-17">
          <mxGeometry x="-5.768156424581007" y="57.61904761904762" width="90" height="30" as="geometry" />
        </mxCell>
        <mxCell id="yUvTqXEQwM74-0tRDP1R-24" value="" style="group" vertex="1" connectable="0" parent="yUvTqXEQwM74-0tRDP1R-241">
          <mxGeometry x="467.22067039106156" y="117.33333333333333" width="98.0586592178771" height="89.04761904761904" as="geometry" />
        </mxCell>
        <mxCell id="yUvTqXEQwM74-0tRDP1R-25" value="" style="whiteSpace=wrap;html=1;aspect=fixed;" vertex="1" parent="yUvTqXEQwM74-0tRDP1R-24">
          <mxGeometry y="5.238095238095238" width="83.80952380952381" height="83.80952380952381" as="geometry" />
        </mxCell>
        <mxCell id="yUvTqXEQwM74-0tRDP1R-26" value="" style="endArrow=none;html=1;rounded=0;exitX=0;exitY=0.25;exitDx=0;exitDy=0;entryX=1;entryY=0.25;entryDx=0;entryDy=0;" edge="1" parent="yUvTqXEQwM74-0tRDP1R-24" source="yUvTqXEQwM74-0tRDP1R-25" target="yUvTqXEQwM74-0tRDP1R-25">
          <mxGeometry width="50" height="50" relative="1" as="geometry">
            <mxPoint x="23.07262569832403" y="78.57142857142857" as="sourcePoint" />
            <mxPoint x="80.75418994413408" y="26.19047619047619" as="targetPoint" />
          </mxGeometry>
        </mxCell>
        <mxCell id="yUvTqXEQwM74-0tRDP1R-27" value="EX2" style="text;html=1;align=center;verticalAlign=middle;resizable=0;points=[];autosize=1;strokeColor=none;fillColor=none;" vertex="1" parent="yUvTqXEQwM74-0tRDP1R-24">
          <mxGeometry x="17.30446927374302" width="50" height="30" as="geometry" />
        </mxCell>
        <mxCell id="yUvTqXEQwM74-0tRDP1R-28" value="" style="endArrow=none;html=1;rounded=0;exitX=0;exitY=0.75;exitDx=0;exitDy=0;entryX=1;entryY=0.75;entryDx=0;entryDy=0;" edge="1" parent="yUvTqXEQwM74-0tRDP1R-24">
          <mxGeometry width="50" height="50" relative="1" as="geometry">
            <mxPoint y="56.57142857142857" as="sourcePoint" />
            <mxPoint x="92.29050279329611" y="56.57142857142857" as="targetPoint" />
          </mxGeometry>
        </mxCell>
        <mxCell id="yUvTqXEQwM74-0tRDP1R-29" value="T:20, EST:64" style="text;html=1;align=center;verticalAlign=middle;resizable=0;points=[];autosize=1;strokeColor=none;fillColor=none;" vertex="1" parent="yUvTqXEQwM74-0tRDP1R-24">
          <mxGeometry x="-5.768156424581007" y="26.19047619047619" width="90" height="30" as="geometry" />
        </mxCell>
        <mxCell id="yUvTqXEQwM74-0tRDP1R-30" value="S:0, LST:64" style="text;html=1;align=center;verticalAlign=middle;resizable=0;points=[];autosize=1;strokeColor=none;fillColor=none;" vertex="1" parent="yUvTqXEQwM74-0tRDP1R-24">
          <mxGeometry x="-5.768156424581007" y="57.61904761904762" width="90" height="30" as="geometry" />
        </mxCell>
        <mxCell id="yUvTqXEQwM74-0tRDP1R-73" value="" style="group" vertex="1" connectable="0" parent="yUvTqXEQwM74-0tRDP1R-241">
          <mxGeometry x="591.8128491620112" width="103.82681564245812" height="89.04761904761904" as="geometry" />
        </mxCell>
        <mxCell id="yUvTqXEQwM74-0tRDP1R-74" value="" style="whiteSpace=wrap;html=1;aspect=fixed;" vertex="1" parent="yUvTqXEQwM74-0tRDP1R-73">
          <mxGeometry y="5.238095238095238" width="83.80952380952381" height="83.80952380952381" as="geometry" />
        </mxCell>
        <mxCell id="yUvTqXEQwM74-0tRDP1R-75" value="" style="endArrow=none;html=1;rounded=0;exitX=0;exitY=0.25;exitDx=0;exitDy=0;entryX=1;entryY=0.25;entryDx=0;entryDy=0;" edge="1" parent="yUvTqXEQwM74-0tRDP1R-73" source="yUvTqXEQwM74-0tRDP1R-74" target="yUvTqXEQwM74-0tRDP1R-74">
          <mxGeometry width="50" height="50" relative="1" as="geometry">
            <mxPoint x="23.07262569832403" y="78.57142857142857" as="sourcePoint" />
            <mxPoint x="80.75418994413408" y="26.19047619047619" as="targetPoint" />
          </mxGeometry>
        </mxCell>
        <mxCell id="yUvTqXEQwM74-0tRDP1R-76" value="EX3" style="text;html=1;align=center;verticalAlign=middle;resizable=0;points=[];autosize=1;strokeColor=none;fillColor=none;" vertex="1" parent="yUvTqXEQwM74-0tRDP1R-73">
          <mxGeometry x="17.30446927374302" width="50" height="30" as="geometry" />
        </mxCell>
        <mxCell id="yUvTqXEQwM74-0tRDP1R-77" value="" style="endArrow=none;html=1;rounded=0;exitX=0;exitY=0.75;exitDx=0;exitDy=0;entryX=1;entryY=0.75;entryDx=0;entryDy=0;" edge="1" parent="yUvTqXEQwM74-0tRDP1R-73">
          <mxGeometry width="50" height="50" relative="1" as="geometry">
            <mxPoint y="56.57142857142857" as="sourcePoint" />
            <mxPoint x="92.29050279329611" y="56.57142857142857" as="targetPoint" />
          </mxGeometry>
        </mxCell>
        <mxCell id="yUvTqXEQwM74-0tRDP1R-78" value="T:6, EST:76" style="text;html=1;align=center;verticalAlign=middle;resizable=0;points=[];autosize=1;strokeColor=none;fillColor=none;" vertex="1" parent="yUvTqXEQwM74-0tRDP1R-73">
          <mxGeometry y="26.19047619047619" width="80" height="30" as="geometry" />
        </mxCell>
        <mxCell id="yUvTqXEQwM74-0tRDP1R-79" value="S:54, LST:130" style="text;html=1;align=center;verticalAlign=middle;resizable=0;points=[];autosize=1;strokeColor=none;fillColor=none;" vertex="1" parent="yUvTqXEQwM74-0tRDP1R-73">
          <mxGeometry x="-11.536312849162014" y="57.61904761904762" width="100" height="30" as="geometry" />
        </mxCell>
        <mxCell id="yUvTqXEQwM74-0tRDP1R-216" value="" style="endArrow=classic;html=1;rounded=0;entryX=0.902;entryY=1.067;entryDx=0;entryDy=0;entryPerimeter=0;" edge="1" parent="yUvTqXEQwM74-0tRDP1R-73" target="yUvTqXEQwM74-0tRDP1R-141">
          <mxGeometry width="50" height="50" relative="1" as="geometry">
            <mxPoint x="91.13687150837991" y="52.38095238095238" as="sourcePoint" />
            <mxPoint x="148.81843575418995" as="targetPoint" />
            <Array as="points">
              <mxPoint x="264.1815642458101" y="52.38095238095238" />
              <mxPoint x="264.1815642458101" y="283.90476190476187" />
            </Array>
          </mxGeometry>
        </mxCell>
        <mxCell id="yUvTqXEQwM74-0tRDP1R-80" value="" style="group" vertex="1" connectable="0" parent="yUvTqXEQwM74-0tRDP1R-241">
          <mxGeometry x="464.91340782122904" width="103.82681564245812" height="89.04761904761904" as="geometry" />
        </mxCell>
        <mxCell id="yUvTqXEQwM74-0tRDP1R-81" value="" style="whiteSpace=wrap;html=1;aspect=fixed;" vertex="1" parent="yUvTqXEQwM74-0tRDP1R-80">
          <mxGeometry y="5.238095238095238" width="83.80952380952381" height="83.80952380952381" as="geometry" />
        </mxCell>
        <mxCell id="yUvTqXEQwM74-0tRDP1R-82" value="" style="endArrow=none;html=1;rounded=0;exitX=0;exitY=0.25;exitDx=0;exitDy=0;entryX=1;entryY=0.25;entryDx=0;entryDy=0;" edge="1" parent="yUvTqXEQwM74-0tRDP1R-80" source="yUvTqXEQwM74-0tRDP1R-81" target="yUvTqXEQwM74-0tRDP1R-81">
          <mxGeometry width="50" height="50" relative="1" as="geometry">
            <mxPoint x="23.07262569832403" y="78.57142857142857" as="sourcePoint" />
            <mxPoint x="80.75418994413408" y="26.19047619047619" as="targetPoint" />
          </mxGeometry>
        </mxCell>
        <mxCell id="yUvTqXEQwM74-0tRDP1R-83" value="EX1" style="text;html=1;align=center;verticalAlign=middle;resizable=0;points=[];autosize=1;strokeColor=none;fillColor=none;" vertex="1" parent="yUvTqXEQwM74-0tRDP1R-80">
          <mxGeometry x="17.30446927374302" width="50" height="30" as="geometry" />
        </mxCell>
        <mxCell id="yUvTqXEQwM74-0tRDP1R-84" value="" style="endArrow=none;html=1;rounded=0;exitX=0;exitY=0.75;exitDx=0;exitDy=0;entryX=1;entryY=0.75;entryDx=0;entryDy=0;" edge="1" parent="yUvTqXEQwM74-0tRDP1R-80">
          <mxGeometry width="50" height="50" relative="1" as="geometry">
            <mxPoint y="56.57142857142857" as="sourcePoint" />
            <mxPoint x="92.29050279329611" y="56.57142857142857" as="targetPoint" />
          </mxGeometry>
        </mxCell>
        <mxCell id="yUvTqXEQwM74-0tRDP1R-85" value="T:12, EST:64" style="text;html=1;align=center;verticalAlign=middle;resizable=0;points=[];autosize=1;strokeColor=none;fillColor=none;" vertex="1" parent="yUvTqXEQwM74-0tRDP1R-80">
          <mxGeometry x="-5.768156424581007" y="26.19047619047619" width="90" height="30" as="geometry" />
        </mxCell>
        <mxCell id="yUvTqXEQwM74-0tRDP1R-86" value="S:54, LST:118" style="text;html=1;align=center;verticalAlign=middle;resizable=0;points=[];autosize=1;strokeColor=none;fillColor=none;" vertex="1" parent="yUvTqXEQwM74-0tRDP1R-80">
          <mxGeometry x="-11.536312849162014" y="57.61904761904762" width="100" height="30" as="geometry" />
        </mxCell>
        <mxCell id="yUvTqXEQwM74-0tRDP1R-209" value="" style="endArrow=classic;html=1;rounded=0;" edge="1" parent="yUvTqXEQwM74-0tRDP1R-80">
          <mxGeometry width="50" height="50" relative="1" as="geometry">
            <mxPoint x="92.29050279329611" y="52.38095238095238" as="sourcePoint" />
            <mxPoint x="126.89944134078213" y="52.38095238095238" as="targetPoint" />
          </mxGeometry>
        </mxCell>
        <mxCell id="yUvTqXEQwM74-0tRDP1R-87" value="" style="group" vertex="1" connectable="0" parent="yUvTqXEQwM74-0tRDP1R-241">
          <mxGeometry x="311.4804469273743" width="98.0586592178771" height="89.04761904761904" as="geometry" />
        </mxCell>
        <mxCell id="yUvTqXEQwM74-0tRDP1R-88" value="" style="whiteSpace=wrap;html=1;aspect=fixed;" vertex="1" parent="yUvTqXEQwM74-0tRDP1R-87">
          <mxGeometry y="5.238095238095238" width="83.80952380952381" height="83.80952380952381" as="geometry" />
        </mxCell>
        <mxCell id="yUvTqXEQwM74-0tRDP1R-89" value="" style="endArrow=none;html=1;rounded=0;exitX=0;exitY=0.25;exitDx=0;exitDy=0;entryX=1;entryY=0.25;entryDx=0;entryDy=0;" edge="1" parent="yUvTqXEQwM74-0tRDP1R-87" source="yUvTqXEQwM74-0tRDP1R-88" target="yUvTqXEQwM74-0tRDP1R-88">
          <mxGeometry width="50" height="50" relative="1" as="geometry">
            <mxPoint x="23.07262569832403" y="78.57142857142857" as="sourcePoint" />
            <mxPoint x="80.75418994413408" y="26.19047619047619" as="targetPoint" />
          </mxGeometry>
        </mxCell>
        <mxCell id="yUvTqXEQwM74-0tRDP1R-90" value="AD1" style="text;html=1;align=center;verticalAlign=middle;resizable=0;points=[];autosize=1;strokeColor=none;fillColor=none;" vertex="1" parent="yUvTqXEQwM74-0tRDP1R-87">
          <mxGeometry x="17.30446927374302" width="50" height="30" as="geometry" />
        </mxCell>
        <mxCell id="yUvTqXEQwM74-0tRDP1R-91" value="" style="endArrow=none;html=1;rounded=0;exitX=0;exitY=0.75;exitDx=0;exitDy=0;entryX=1;entryY=0.75;entryDx=0;entryDy=0;" edge="1" parent="yUvTqXEQwM74-0tRDP1R-87">
          <mxGeometry width="50" height="50" relative="1" as="geometry">
            <mxPoint y="56.57142857142857" as="sourcePoint" />
            <mxPoint x="92.29050279329611" y="56.57142857142857" as="targetPoint" />
          </mxGeometry>
        </mxCell>
        <mxCell id="yUvTqXEQwM74-0tRDP1R-92" value="T:40, EST:24" style="text;html=1;align=center;verticalAlign=middle;resizable=0;points=[];autosize=1;strokeColor=none;fillColor=none;" vertex="1" parent="yUvTqXEQwM74-0tRDP1R-87">
          <mxGeometry x="-5.768156424581007" y="26.19047619047619" width="90" height="30" as="geometry" />
        </mxCell>
        <mxCell id="yUvTqXEQwM74-0tRDP1R-93" value="S:24, LST:0" style="text;html=1;align=center;verticalAlign=middle;resizable=0;points=[];autosize=1;strokeColor=none;fillColor=none;" vertex="1" parent="yUvTqXEQwM74-0tRDP1R-87">
          <mxGeometry x="-5.768156424581007" y="57.61904761904762" width="90" height="30" as="geometry" />
        </mxCell>
        <mxCell id="yUvTqXEQwM74-0tRDP1R-224" value="" style="endArrow=classic;html=1;rounded=0;" edge="1" parent="yUvTqXEQwM74-0tRDP1R-87">
          <mxGeometry width="50" height="50" relative="1" as="geometry">
            <mxPoint x="130.36033519553072" y="52.38095238095238" as="sourcePoint" />
            <mxPoint x="153.43296089385476" y="167.61904761904762" as="targetPoint" />
            <Array as="points">
              <mxPoint x="130.36033519553072" y="167.61904761904762" />
            </Array>
          </mxGeometry>
        </mxCell>
        <mxCell id="yUvTqXEQwM74-0tRDP1R-101" value="" style="group" vertex="1" connectable="0" parent="yUvTqXEQwM74-0tRDP1R-241">
          <mxGeometry x="721.0195530726257" y="118.38095238095237" width="98.0586592178771" height="89.04761904761904" as="geometry" />
        </mxCell>
        <mxCell id="yUvTqXEQwM74-0tRDP1R-102" value="" style="whiteSpace=wrap;html=1;aspect=fixed;" vertex="1" parent="yUvTqXEQwM74-0tRDP1R-101">
          <mxGeometry y="5.238095238095238" width="83.80952380952381" height="83.80952380952381" as="geometry" />
        </mxCell>
        <mxCell id="yUvTqXEQwM74-0tRDP1R-103" value="" style="endArrow=none;html=1;rounded=0;exitX=0;exitY=0.25;exitDx=0;exitDy=0;entryX=1;entryY=0.25;entryDx=0;entryDy=0;" edge="1" parent="yUvTqXEQwM74-0tRDP1R-101" source="yUvTqXEQwM74-0tRDP1R-102" target="yUvTqXEQwM74-0tRDP1R-102">
          <mxGeometry width="50" height="50" relative="1" as="geometry">
            <mxPoint x="23.07262569832403" y="78.57142857142857" as="sourcePoint" />
            <mxPoint x="80.75418994413408" y="26.19047619047619" as="targetPoint" />
          </mxGeometry>
        </mxCell>
        <mxCell id="yUvTqXEQwM74-0tRDP1R-104" value="EX5" style="text;html=1;align=center;verticalAlign=middle;resizable=0;points=[];autosize=1;strokeColor=none;fillColor=none;" vertex="1" parent="yUvTqXEQwM74-0tRDP1R-101">
          <mxGeometry x="17.30446927374302" width="50" height="30" as="geometry" />
        </mxCell>
        <mxCell id="yUvTqXEQwM74-0tRDP1R-105" value="" style="endArrow=none;html=1;rounded=0;exitX=0;exitY=0.75;exitDx=0;exitDy=0;entryX=1;entryY=0.75;entryDx=0;entryDy=0;" edge="1" parent="yUvTqXEQwM74-0tRDP1R-101">
          <mxGeometry width="50" height="50" relative="1" as="geometry">
            <mxPoint y="56.57142857142857" as="sourcePoint" />
            <mxPoint x="92.29050279329611" y="56.57142857142857" as="targetPoint" />
          </mxGeometry>
        </mxCell>
        <mxCell id="yUvTqXEQwM74-0tRDP1R-106" value="T:48, EST:88" style="text;html=1;align=center;verticalAlign=middle;resizable=0;points=[];autosize=1;strokeColor=none;fillColor=none;" vertex="1" parent="yUvTqXEQwM74-0tRDP1R-101">
          <mxGeometry x="-5.768156424581007" y="26.19047619047619" width="90" height="30" as="geometry" />
        </mxCell>
        <mxCell id="yUvTqXEQwM74-0tRDP1R-107" value="S:0, LST:88" style="text;html=1;align=center;verticalAlign=middle;resizable=0;points=[];autosize=1;strokeColor=none;fillColor=none;" vertex="1" parent="yUvTqXEQwM74-0tRDP1R-101">
          <mxGeometry x="-5.768156424581007" y="57.61904761904762" width="90" height="30" as="geometry" />
        </mxCell>
        <mxCell id="yUvTqXEQwM74-0tRDP1R-219" value="" style="endArrow=none;html=1;rounded=0;" edge="1" parent="yUvTqXEQwM74-0tRDP1R-101">
          <mxGeometry width="50" height="50" relative="1" as="geometry">
            <mxPoint x="92.29050279329611" y="49.23809523809524" as="sourcePoint" />
            <mxPoint x="132.66759776536315" y="49.23809523809524" as="targetPoint" />
          </mxGeometry>
        </mxCell>
        <mxCell id="yUvTqXEQwM74-0tRDP1R-108" value="" style="group" vertex="1" connectable="0" parent="yUvTqXEQwM74-0tRDP1R-241">
          <mxGeometry x="594.1201117318436" y="116.28571428571428" width="98.0586592178771" height="89.04761904761904" as="geometry" />
        </mxCell>
        <mxCell id="yUvTqXEQwM74-0tRDP1R-109" value="" style="whiteSpace=wrap;html=1;aspect=fixed;" vertex="1" parent="yUvTqXEQwM74-0tRDP1R-108">
          <mxGeometry y="5.238095238095238" width="83.80952380952381" height="83.80952380952381" as="geometry" />
        </mxCell>
        <mxCell id="yUvTqXEQwM74-0tRDP1R-110" value="" style="endArrow=none;html=1;rounded=0;exitX=0;exitY=0.25;exitDx=0;exitDy=0;entryX=1;entryY=0.25;entryDx=0;entryDy=0;" edge="1" parent="yUvTqXEQwM74-0tRDP1R-108" source="yUvTqXEQwM74-0tRDP1R-109" target="yUvTqXEQwM74-0tRDP1R-109">
          <mxGeometry width="50" height="50" relative="1" as="geometry">
            <mxPoint x="23.07262569832403" y="78.57142857142857" as="sourcePoint" />
            <mxPoint x="80.75418994413408" y="26.19047619047619" as="targetPoint" />
          </mxGeometry>
        </mxCell>
        <mxCell id="yUvTqXEQwM74-0tRDP1R-111" value="EX4" style="text;html=1;align=center;verticalAlign=middle;resizable=0;points=[];autosize=1;strokeColor=none;fillColor=none;" vertex="1" parent="yUvTqXEQwM74-0tRDP1R-108">
          <mxGeometry x="17.30446927374302" width="50" height="30" as="geometry" />
        </mxCell>
        <mxCell id="yUvTqXEQwM74-0tRDP1R-112" value="" style="endArrow=none;html=1;rounded=0;exitX=0;exitY=0.75;exitDx=0;exitDy=0;entryX=1;entryY=0.75;entryDx=0;entryDy=0;" edge="1" parent="yUvTqXEQwM74-0tRDP1R-108">
          <mxGeometry width="50" height="50" relative="1" as="geometry">
            <mxPoint y="56.57142857142857" as="sourcePoint" />
            <mxPoint x="92.29050279329611" y="56.57142857142857" as="targetPoint" />
          </mxGeometry>
        </mxCell>
        <mxCell id="yUvTqXEQwM74-0tRDP1R-113" value="T:4, EST:84" style="text;html=1;align=center;verticalAlign=middle;resizable=0;points=[];autosize=1;strokeColor=none;fillColor=none;" vertex="1" parent="yUvTqXEQwM74-0tRDP1R-108">
          <mxGeometry y="26.19047619047619" width="80" height="30" as="geometry" />
        </mxCell>
        <mxCell id="yUvTqXEQwM74-0tRDP1R-114" value="S:0, LST:84" style="text;html=1;align=center;verticalAlign=middle;resizable=0;points=[];autosize=1;strokeColor=none;fillColor=none;" vertex="1" parent="yUvTqXEQwM74-0tRDP1R-108">
          <mxGeometry x="-5.768156424581007" y="57.61904761904762" width="90" height="30" as="geometry" />
        </mxCell>
        <mxCell id="yUvTqXEQwM74-0tRDP1R-212" value="" style="endArrow=classic;html=1;rounded=0;entryX=0.056;entryY=0.7;entryDx=0;entryDy=0;entryPerimeter=0;" edge="1" parent="yUvTqXEQwM74-0tRDP1R-108">
          <mxGeometry width="50" height="50" relative="1" as="geometry">
            <mxPoint x="91.13687150837991" y="51.33333333333333" as="sourcePoint" />
            <mxPoint x="125.79195530726254" y="51.33333333333333" as="targetPoint" />
          </mxGeometry>
        </mxCell>
        <mxCell id="yUvTqXEQwM74-0tRDP1R-115" value="" style="group" vertex="1" connectable="0" parent="yUvTqXEQwM74-0tRDP1R-241">
          <mxGeometry x="724.4804469273743" y="567.8095238095237" width="98.0586592178771" height="89.04761904761904" as="geometry" />
        </mxCell>
        <mxCell id="yUvTqXEQwM74-0tRDP1R-116" value="" style="whiteSpace=wrap;html=1;aspect=fixed;" vertex="1" parent="yUvTqXEQwM74-0tRDP1R-115">
          <mxGeometry y="5.238095238095238" width="83.80952380952381" height="83.80952380952381" as="geometry" />
        </mxCell>
        <mxCell id="yUvTqXEQwM74-0tRDP1R-117" value="" style="endArrow=none;html=1;rounded=0;exitX=0;exitY=0.25;exitDx=0;exitDy=0;entryX=1;entryY=0.25;entryDx=0;entryDy=0;" edge="1" parent="yUvTqXEQwM74-0tRDP1R-115" source="yUvTqXEQwM74-0tRDP1R-116" target="yUvTqXEQwM74-0tRDP1R-116">
          <mxGeometry width="50" height="50" relative="1" as="geometry">
            <mxPoint x="23.07262569832403" y="78.57142857142857" as="sourcePoint" />
            <mxPoint x="80.75418994413408" y="26.19047619047619" as="targetPoint" />
          </mxGeometry>
        </mxCell>
        <mxCell id="yUvTqXEQwM74-0tRDP1R-118" value="RE2" style="text;html=1;align=center;verticalAlign=middle;resizable=0;points=[];autosize=1;strokeColor=none;fillColor=none;" vertex="1" parent="yUvTqXEQwM74-0tRDP1R-115">
          <mxGeometry x="17.30446927374302" width="50" height="30" as="geometry" />
        </mxCell>
        <mxCell id="yUvTqXEQwM74-0tRDP1R-119" value="" style="endArrow=none;html=1;rounded=0;exitX=0;exitY=0.75;exitDx=0;exitDy=0;entryX=1;entryY=0.75;entryDx=0;entryDy=0;" edge="1" parent="yUvTqXEQwM74-0tRDP1R-115">
          <mxGeometry width="50" height="50" relative="1" as="geometry">
            <mxPoint y="56.57142857142857" as="sourcePoint" />
            <mxPoint x="92.29050279329611" y="56.57142857142857" as="targetPoint" />
          </mxGeometry>
        </mxCell>
        <mxCell id="yUvTqXEQwM74-0tRDP1R-120" value="T:2, EST:198" style="text;html=1;align=center;verticalAlign=middle;resizable=0;points=[];autosize=1;strokeColor=none;fillColor=none;" vertex="1" parent="yUvTqXEQwM74-0tRDP1R-115">
          <mxGeometry x="-5.768156424581007" y="26.19047619047619" width="90" height="30" as="geometry" />
        </mxCell>
        <mxCell id="yUvTqXEQwM74-0tRDP1R-121" value="S:0, LST:198" style="text;html=1;align=center;verticalAlign=middle;resizable=0;points=[];autosize=1;strokeColor=none;fillColor=none;" vertex="1" parent="yUvTqXEQwM74-0tRDP1R-115">
          <mxGeometry x="-5.768156424581007" y="57.61904761904762" width="90" height="30" as="geometry" />
        </mxCell>
        <mxCell id="yUvTqXEQwM74-0tRDP1R-122" value="" style="group" vertex="1" connectable="0" parent="yUvTqXEQwM74-0tRDP1R-241">
          <mxGeometry x="724.4804469273743" y="452.57142857142856" width="98.0586592178771" height="89.04761904761904" as="geometry" />
        </mxCell>
        <mxCell id="yUvTqXEQwM74-0tRDP1R-123" value="" style="whiteSpace=wrap;html=1;aspect=fixed;" vertex="1" parent="yUvTqXEQwM74-0tRDP1R-122">
          <mxGeometry y="5.238095238095238" width="83.80952380952381" height="83.80952380952381" as="geometry" />
        </mxCell>
        <mxCell id="yUvTqXEQwM74-0tRDP1R-124" value="" style="endArrow=none;html=1;rounded=0;exitX=0;exitY=0.25;exitDx=0;exitDy=0;entryX=1;entryY=0.25;entryDx=0;entryDy=0;" edge="1" parent="yUvTqXEQwM74-0tRDP1R-122" source="yUvTqXEQwM74-0tRDP1R-123" target="yUvTqXEQwM74-0tRDP1R-123">
          <mxGeometry width="50" height="50" relative="1" as="geometry">
            <mxPoint x="23.07262569832403" y="78.57142857142857" as="sourcePoint" />
            <mxPoint x="80.75418994413408" y="26.19047619047619" as="targetPoint" />
          </mxGeometry>
        </mxCell>
        <mxCell id="yUvTqXEQwM74-0tRDP1R-125" value="RE1" style="text;html=1;align=center;verticalAlign=middle;resizable=0;points=[];autosize=1;strokeColor=none;fillColor=none;" vertex="1" parent="yUvTqXEQwM74-0tRDP1R-122">
          <mxGeometry x="17.30446927374302" width="50" height="30" as="geometry" />
        </mxCell>
        <mxCell id="yUvTqXEQwM74-0tRDP1R-126" value="" style="endArrow=none;html=1;rounded=0;exitX=0;exitY=0.75;exitDx=0;exitDy=0;entryX=1;entryY=0.75;entryDx=0;entryDy=0;" edge="1" parent="yUvTqXEQwM74-0tRDP1R-122">
          <mxGeometry width="50" height="50" relative="1" as="geometry">
            <mxPoint y="56.57142857142857" as="sourcePoint" />
            <mxPoint x="92.29050279329611" y="56.57142857142857" as="targetPoint" />
          </mxGeometry>
        </mxCell>
        <mxCell id="yUvTqXEQwM74-0tRDP1R-127" value="T:6, EST:192" style="text;html=1;align=center;verticalAlign=middle;resizable=0;points=[];autosize=1;strokeColor=none;fillColor=none;" vertex="1" parent="yUvTqXEQwM74-0tRDP1R-122">
          <mxGeometry x="-5.768156424581007" y="26.19047619047619" width="90" height="30" as="geometry" />
        </mxCell>
        <mxCell id="yUvTqXEQwM74-0tRDP1R-128" value="S:0, LST:192" style="text;html=1;align=center;verticalAlign=middle;resizable=0;points=[];autosize=1;strokeColor=none;fillColor=none;" vertex="1" parent="yUvTqXEQwM74-0tRDP1R-122">
          <mxGeometry x="-5.768156424581007" y="57.61904761904762" width="90" height="30" as="geometry" />
        </mxCell>
        <mxCell id="yUvTqXEQwM74-0tRDP1R-129" value="" style="group" vertex="1" connectable="0" parent="yUvTqXEQwM74-0tRDP1R-241">
          <mxGeometry x="722.1731843575419" y="341.52380952380946" width="103.82681564245812" height="89.04761904761904" as="geometry" />
        </mxCell>
        <mxCell id="yUvTqXEQwM74-0tRDP1R-130" value="" style="whiteSpace=wrap;html=1;aspect=fixed;" vertex="1" parent="yUvTqXEQwM74-0tRDP1R-129">
          <mxGeometry y="5.238095238095238" width="83.80952380952381" height="83.80952380952381" as="geometry" />
        </mxCell>
        <mxCell id="yUvTqXEQwM74-0tRDP1R-131" value="" style="endArrow=none;html=1;rounded=0;exitX=0;exitY=0.25;exitDx=0;exitDy=0;entryX=1;entryY=0.25;entryDx=0;entryDy=0;" edge="1" parent="yUvTqXEQwM74-0tRDP1R-129" source="yUvTqXEQwM74-0tRDP1R-130" target="yUvTqXEQwM74-0tRDP1R-130">
          <mxGeometry width="50" height="50" relative="1" as="geometry">
            <mxPoint x="23.07262569832403" y="78.57142857142857" as="sourcePoint" />
            <mxPoint x="80.75418994413408" y="26.19047619047619" as="targetPoint" />
          </mxGeometry>
        </mxCell>
        <mxCell id="yUvTqXEQwM74-0tRDP1R-132" value="EX7" style="text;html=1;align=center;verticalAlign=middle;resizable=0;points=[];autosize=1;strokeColor=none;fillColor=none;" vertex="1" parent="yUvTqXEQwM74-0tRDP1R-129">
          <mxGeometry x="17.30446927374302" width="50" height="30" as="geometry" />
        </mxCell>
        <mxCell id="yUvTqXEQwM74-0tRDP1R-133" value="" style="endArrow=none;html=1;rounded=0;exitX=0;exitY=0.75;exitDx=0;exitDy=0;entryX=1;entryY=0.75;entryDx=0;entryDy=0;" edge="1" parent="yUvTqXEQwM74-0tRDP1R-129">
          <mxGeometry width="50" height="50" relative="1" as="geometry">
            <mxPoint y="56.57142857142857" as="sourcePoint" />
            <mxPoint x="92.29050279329611" y="56.57142857142857" as="targetPoint" />
          </mxGeometry>
        </mxCell>
        <mxCell id="yUvTqXEQwM74-0tRDP1R-134" value="T:40, EST:152" style="text;html=1;align=center;verticalAlign=middle;resizable=0;points=[];autosize=1;strokeColor=none;fillColor=none;" vertex="1" parent="yUvTqXEQwM74-0tRDP1R-129">
          <mxGeometry x="-11.536312849162014" y="26.19047619047619" width="100" height="30" as="geometry" />
        </mxCell>
        <mxCell id="yUvTqXEQwM74-0tRDP1R-135" value="S:0, LST:152" style="text;html=1;align=center;verticalAlign=middle;resizable=0;points=[];autosize=1;strokeColor=none;fillColor=none;" vertex="1" parent="yUvTqXEQwM74-0tRDP1R-129">
          <mxGeometry x="-5.768156424581007" y="57.61904761904762" width="90" height="30" as="geometry" />
        </mxCell>
        <mxCell id="yUvTqXEQwM74-0tRDP1R-222" value="" style="endArrow=classic;html=1;rounded=0;" edge="1" parent="yUvTqXEQwM74-0tRDP1R-129">
          <mxGeometry width="50" height="50" relative="1" as="geometry">
            <mxPoint x="47.29888268156425" y="88" as="sourcePoint" />
            <mxPoint x="47.29888268156425" y="117.33333333333333" as="targetPoint" />
          </mxGeometry>
        </mxCell>
        <mxCell id="yUvTqXEQwM74-0tRDP1R-136" value="" style="group" vertex="1" connectable="0" parent="yUvTqXEQwM74-0tRDP1R-241">
          <mxGeometry x="722.1731843575419" y="224.19047619047618" width="103.82681564245812" height="89.04761904761904" as="geometry" />
        </mxCell>
        <mxCell id="yUvTqXEQwM74-0tRDP1R-137" value="" style="whiteSpace=wrap;html=1;aspect=fixed;" vertex="1" parent="yUvTqXEQwM74-0tRDP1R-136">
          <mxGeometry y="5.238095238095238" width="83.80952380952381" height="83.80952380952381" as="geometry" />
        </mxCell>
        <mxCell id="yUvTqXEQwM74-0tRDP1R-138" value="" style="endArrow=none;html=1;rounded=0;exitX=0;exitY=0.25;exitDx=0;exitDy=0;entryX=1;entryY=0.25;entryDx=0;entryDy=0;" edge="1" parent="yUvTqXEQwM74-0tRDP1R-136" source="yUvTqXEQwM74-0tRDP1R-137" target="yUvTqXEQwM74-0tRDP1R-137">
          <mxGeometry width="50" height="50" relative="1" as="geometry">
            <mxPoint x="23.07262569832403" y="78.57142857142857" as="sourcePoint" />
            <mxPoint x="80.75418994413408" y="26.19047619047619" as="targetPoint" />
          </mxGeometry>
        </mxCell>
        <mxCell id="yUvTqXEQwM74-0tRDP1R-139" value="EX6" style="text;html=1;align=center;verticalAlign=middle;resizable=0;points=[];autosize=1;strokeColor=none;fillColor=none;" vertex="1" parent="yUvTqXEQwM74-0tRDP1R-136">
          <mxGeometry x="17.30446927374302" width="50" height="30" as="geometry" />
        </mxCell>
        <mxCell id="yUvTqXEQwM74-0tRDP1R-140" value="" style="endArrow=none;html=1;rounded=0;exitX=0;exitY=0.75;exitDx=0;exitDy=0;entryX=1;entryY=0.75;entryDx=0;entryDy=0;" edge="1" parent="yUvTqXEQwM74-0tRDP1R-136">
          <mxGeometry width="50" height="50" relative="1" as="geometry">
            <mxPoint y="56.57142857142857" as="sourcePoint" />
            <mxPoint x="92.29050279329611" y="56.57142857142857" as="targetPoint" />
          </mxGeometry>
        </mxCell>
        <mxCell id="yUvTqXEQwM74-0tRDP1R-141" value="T:16, EST:136" style="text;html=1;align=center;verticalAlign=middle;resizable=0;points=[];autosize=1;strokeColor=none;fillColor=none;" vertex="1" parent="yUvTqXEQwM74-0tRDP1R-136">
          <mxGeometry x="-11.536312849162014" y="26.19047619047619" width="100" height="30" as="geometry" />
        </mxCell>
        <mxCell id="yUvTqXEQwM74-0tRDP1R-142" value="S:0, LST:136" style="text;html=1;align=center;verticalAlign=middle;resizable=0;points=[];autosize=1;strokeColor=none;fillColor=none;" vertex="1" parent="yUvTqXEQwM74-0tRDP1R-136">
          <mxGeometry x="-5.768156424581007" y="57.61904761904762" width="90" height="30" as="geometry" />
        </mxCell>
        <mxCell id="yUvTqXEQwM74-0tRDP1R-220" value="" style="endArrow=classic;html=1;rounded=0;" edge="1" parent="yUvTqXEQwM74-0tRDP1R-136">
          <mxGeometry width="50" height="50" relative="1" as="geometry">
            <mxPoint x="50.759776536312856" y="90.0952380952381" as="sourcePoint" />
            <mxPoint x="50.759776536312856" y="121.52380952380952" as="targetPoint" />
          </mxGeometry>
        </mxCell>
        <mxCell id="yUvTqXEQwM74-0tRDP1R-143" value="" style="group" vertex="1" connectable="0" parent="yUvTqXEQwM74-0tRDP1R-241">
          <mxGeometry x="517.9804469273744" y="345.7142857142857" width="98.0586592178771" height="89.04761904761904" as="geometry" />
        </mxCell>
        <mxCell id="yUvTqXEQwM74-0tRDP1R-144" value="" style="whiteSpace=wrap;html=1;aspect=fixed;" vertex="1" parent="yUvTqXEQwM74-0tRDP1R-143">
          <mxGeometry y="5.238095238095238" width="83.80952380952381" height="83.80952380952381" as="geometry" />
        </mxCell>
        <mxCell id="yUvTqXEQwM74-0tRDP1R-145" value="" style="endArrow=none;html=1;rounded=0;exitX=0;exitY=0.25;exitDx=0;exitDy=0;entryX=1;entryY=0.25;entryDx=0;entryDy=0;" edge="1" parent="yUvTqXEQwM74-0tRDP1R-143" source="yUvTqXEQwM74-0tRDP1R-144" target="yUvTqXEQwM74-0tRDP1R-144">
          <mxGeometry width="50" height="50" relative="1" as="geometry">
            <mxPoint x="23.07262569832403" y="78.57142857142857" as="sourcePoint" />
            <mxPoint x="80.75418994413408" y="26.19047619047619" as="targetPoint" />
          </mxGeometry>
        </mxCell>
        <mxCell id="yUvTqXEQwM74-0tRDP1R-146" value="UG6" style="text;html=1;align=center;verticalAlign=middle;resizable=0;points=[];autosize=1;strokeColor=none;fillColor=none;" vertex="1" parent="yUvTqXEQwM74-0tRDP1R-143">
          <mxGeometry x="17.30446927374302" width="50" height="30" as="geometry" />
        </mxCell>
        <mxCell id="yUvTqXEQwM74-0tRDP1R-147" value="" style="endArrow=none;html=1;rounded=0;exitX=0;exitY=0.75;exitDx=0;exitDy=0;entryX=1;entryY=0.75;entryDx=0;entryDy=0;" edge="1" parent="yUvTqXEQwM74-0tRDP1R-143">
          <mxGeometry width="50" height="50" relative="1" as="geometry">
            <mxPoint y="56.57142857142857" as="sourcePoint" />
            <mxPoint x="92.29050279329611" y="56.57142857142857" as="targetPoint" />
          </mxGeometry>
        </mxCell>
        <mxCell id="yUvTqXEQwM74-0tRDP1R-148" value="T:2, EST:192" style="text;html=1;align=center;verticalAlign=middle;resizable=0;points=[];autosize=1;strokeColor=none;fillColor=none;" vertex="1" parent="yUvTqXEQwM74-0tRDP1R-143">
          <mxGeometry x="-5.768156424581007" y="26.19047619047619" width="90" height="30" as="geometry" />
        </mxCell>
        <mxCell id="yUvTqXEQwM74-0tRDP1R-149" value="S:6, LST:198" style="text;html=1;align=center;verticalAlign=middle;resizable=0;points=[];autosize=1;strokeColor=none;fillColor=none;" vertex="1" parent="yUvTqXEQwM74-0tRDP1R-143">
          <mxGeometry x="-5.768156424581007" y="57.61904761904762" width="90" height="30" as="geometry" />
        </mxCell>
        <mxCell id="yUvTqXEQwM74-0tRDP1R-150" value="" style="group" vertex="1" connectable="0" parent="yUvTqXEQwM74-0tRDP1R-241">
          <mxGeometry x="509.90502793296093" y="567.8095238095237" width="98.0586592178771" height="89.04761904761904" as="geometry" />
        </mxCell>
        <mxCell id="yUvTqXEQwM74-0tRDP1R-151" value="" style="whiteSpace=wrap;html=1;aspect=fixed;" vertex="1" parent="yUvTqXEQwM74-0tRDP1R-150">
          <mxGeometry y="5.238095238095238" width="83.80952380952381" height="83.80952380952381" as="geometry" />
        </mxCell>
        <mxCell id="yUvTqXEQwM74-0tRDP1R-152" value="" style="endArrow=none;html=1;rounded=0;exitX=0;exitY=0.25;exitDx=0;exitDy=0;entryX=1;entryY=0.25;entryDx=0;entryDy=0;" edge="1" parent="yUvTqXEQwM74-0tRDP1R-150" source="yUvTqXEQwM74-0tRDP1R-151" target="yUvTqXEQwM74-0tRDP1R-151">
          <mxGeometry width="50" height="50" relative="1" as="geometry">
            <mxPoint x="23.07262569832403" y="78.57142857142857" as="sourcePoint" />
            <mxPoint x="80.75418994413408" y="26.19047619047619" as="targetPoint" />
          </mxGeometry>
        </mxCell>
        <mxCell id="yUvTqXEQwM74-0tRDP1R-153" value="FINISH" style="text;html=1;align=center;verticalAlign=middle;resizable=0;points=[];autosize=1;strokeColor=none;fillColor=none;" vertex="1" parent="yUvTqXEQwM74-0tRDP1R-150">
          <mxGeometry x="11.536312849162014" width="60" height="30" as="geometry" />
        </mxCell>
        <mxCell id="yUvTqXEQwM74-0tRDP1R-154" value="" style="endArrow=none;html=1;rounded=0;exitX=0;exitY=0.75;exitDx=0;exitDy=0;entryX=1;entryY=0.75;entryDx=0;entryDy=0;" edge="1" parent="yUvTqXEQwM74-0tRDP1R-150">
          <mxGeometry width="50" height="50" relative="1" as="geometry">
            <mxPoint y="56.57142857142857" as="sourcePoint" />
            <mxPoint x="92.29050279329611" y="56.57142857142857" as="targetPoint" />
          </mxGeometry>
        </mxCell>
        <mxCell id="yUvTqXEQwM74-0tRDP1R-155" value="T:0, EST:200" style="text;html=1;align=center;verticalAlign=middle;resizable=0;points=[];autosize=1;strokeColor=none;fillColor=none;" vertex="1" parent="yUvTqXEQwM74-0tRDP1R-150">
          <mxGeometry x="-5.768156424581007" y="26.19047619047619" width="90" height="30" as="geometry" />
        </mxCell>
        <mxCell id="yUvTqXEQwM74-0tRDP1R-156" value="S:0, LST:200" style="text;html=1;align=center;verticalAlign=middle;resizable=0;points=[];autosize=1;strokeColor=none;fillColor=none;" vertex="1" parent="yUvTqXEQwM74-0tRDP1R-150">
          <mxGeometry x="-5.768156424581007" y="57.61904761904762" width="90" height="30" as="geometry" />
        </mxCell>
        <mxCell id="yUvTqXEQwM74-0tRDP1R-165" value="" style="group" vertex="1" connectable="0" parent="yUvTqXEQwM74-0tRDP1R-241">
          <mxGeometry x="311.4804469273743" y="333.1428571428571" width="126.89944134078213" height="94.28571428571428" as="geometry" />
        </mxCell>
        <mxCell id="yUvTqXEQwM74-0tRDP1R-166" value="" style="whiteSpace=wrap;html=1;aspect=fixed;" vertex="1" parent="yUvTqXEQwM74-0tRDP1R-165">
          <mxGeometry y="5.546218487394958" width="88.73949579831933" height="88.73949579831933" as="geometry" />
        </mxCell>
        <mxCell id="yUvTqXEQwM74-0tRDP1R-167" value="" style="endArrow=none;html=1;rounded=0;exitX=0;exitY=0.25;exitDx=0;exitDy=0;entryX=1;entryY=0.25;entryDx=0;entryDy=0;" edge="1" parent="yUvTqXEQwM74-0tRDP1R-165" source="yUvTqXEQwM74-0tRDP1R-166" target="yUvTqXEQwM74-0tRDP1R-166">
          <mxGeometry width="50" height="50" relative="1" as="geometry">
            <mxPoint x="26.715671861217295" y="83.19327731092436" as="sourcePoint" />
            <mxPoint x="93.50485151426054" y="27.73109243697479" as="targetPoint" />
          </mxGeometry>
        </mxCell>
        <mxCell id="yUvTqXEQwM74-0tRDP1R-168" value="UG3" style="text;html=1;align=center;verticalAlign=middle;resizable=0;points=[];autosize=1;strokeColor=none;fillColor=none;" vertex="1" parent="yUvTqXEQwM74-0tRDP1R-165">
          <mxGeometry x="20.036753895912973" width="50" height="30" as="geometry" />
        </mxCell>
        <mxCell id="yUvTqXEQwM74-0tRDP1R-169" value="S:172, LST:196" style="text;html=1;align=center;verticalAlign=middle;resizable=0;points=[];autosize=1;strokeColor=none;fillColor=none;" vertex="1" parent="yUvTqXEQwM74-0tRDP1R-165">
          <mxGeometry x="-14.569148779770655" y="64.94745098039216" width="110" height="30" as="geometry" />
        </mxCell>
        <mxCell id="yUvTqXEQwM74-0tRDP1R-170" value="T:2, EST:24" style="text;html=1;align=center;verticalAlign=middle;resizable=0;points=[];autosize=1;strokeColor=none;fillColor=none;" vertex="1" parent="yUvTqXEQwM74-0tRDP1R-165">
          <mxGeometry y="27.731092436974816" width="80" height="30" as="geometry" />
        </mxCell>
        <mxCell id="yUvTqXEQwM74-0tRDP1R-183" value="" style="endArrow=none;html=1;rounded=0;exitX=0.115;exitY=0;exitDx=0;exitDy=0;exitPerimeter=0;entryX=0.888;entryY=-0.033;entryDx=0;entryDy=0;entryPerimeter=0;" edge="1" parent="yUvTqXEQwM74-0tRDP1R-165">
          <mxGeometry width="50" height="50" relative="1" as="geometry">
            <mxPoint x="0.024286974419459637" y="60.75697478991597" as="sourcePoint" />
            <mxPoint x="98.11755513084401" y="59.7198319327731" as="targetPoint" />
          </mxGeometry>
        </mxCell>
        <mxCell id="yUvTqXEQwM74-0tRDP1R-171" value="" style="group" vertex="1" connectable="0" parent="yUvTqXEQwM74-0tRDP1R-241">
          <mxGeometry x="311.4804469273743" y="444.19047619047615" width="126.89944134078213" height="94.28571428571428" as="geometry" />
        </mxCell>
        <mxCell id="yUvTqXEQwM74-0tRDP1R-172" value="" style="whiteSpace=wrap;html=1;aspect=fixed;" vertex="1" parent="yUvTqXEQwM74-0tRDP1R-171">
          <mxGeometry y="5.546218487394958" width="88.73949579831933" height="88.73949579831933" as="geometry" />
        </mxCell>
        <mxCell id="yUvTqXEQwM74-0tRDP1R-173" value="" style="endArrow=none;html=1;rounded=0;exitX=0;exitY=0.25;exitDx=0;exitDy=0;entryX=1;entryY=0.25;entryDx=0;entryDy=0;" edge="1" parent="yUvTqXEQwM74-0tRDP1R-171" source="yUvTqXEQwM74-0tRDP1R-172" target="yUvTqXEQwM74-0tRDP1R-172">
          <mxGeometry width="50" height="50" relative="1" as="geometry">
            <mxPoint x="26.715671861217295" y="83.19327731092436" as="sourcePoint" />
            <mxPoint x="93.50485151426054" y="27.73109243697479" as="targetPoint" />
          </mxGeometry>
        </mxCell>
        <mxCell id="yUvTqXEQwM74-0tRDP1R-174" value="UG4" style="text;html=1;align=center;verticalAlign=middle;resizable=0;points=[];autosize=1;strokeColor=none;fillColor=none;" vertex="1" parent="yUvTqXEQwM74-0tRDP1R-171">
          <mxGeometry x="20.036753895912973" width="50" height="30" as="geometry" />
        </mxCell>
        <mxCell id="yUvTqXEQwM74-0tRDP1R-175" value="S:172, LST:196" style="text;html=1;align=center;verticalAlign=middle;resizable=0;points=[];autosize=1;strokeColor=none;fillColor=none;" vertex="1" parent="yUvTqXEQwM74-0tRDP1R-171">
          <mxGeometry x="-14.569148779770655" y="62.85221288515407" width="110" height="30" as="geometry" />
        </mxCell>
        <mxCell id="yUvTqXEQwM74-0tRDP1R-176" value="T:2, EST:24" style="text;html=1;align=center;verticalAlign=middle;resizable=0;points=[];autosize=1;strokeColor=none;fillColor=none;" vertex="1" parent="yUvTqXEQwM74-0tRDP1R-171">
          <mxGeometry y="27.731092436974816" width="80" height="30" as="geometry" />
        </mxCell>
        <mxCell id="yUvTqXEQwM74-0tRDP1R-195" value="" style="endArrow=none;html=1;rounded=0;exitX=0.135;exitY=-0.06;exitDx=0;exitDy=0;exitPerimeter=0;entryX=1.04;entryY=1.158;entryDx=0;entryDy=0;entryPerimeter=0;" edge="1" parent="yUvTqXEQwM74-0tRDP1R-171">
          <mxGeometry width="50" height="50" relative="1" as="geometry">
            <mxPoint x="0.0012143487209255413" y="61.54268907563029" as="sourcePoint" />
            <mxPoint x="95.982122905028" y="60.982521008403396" as="targetPoint" />
          </mxGeometry>
        </mxCell>
        <mxCell id="yUvTqXEQwM74-0tRDP1R-228" value="" style="endArrow=none;html=1;rounded=0;" edge="1" parent="yUvTqXEQwM74-0tRDP1R-171">
          <mxGeometry width="50" height="50" relative="1" as="geometry">
            <mxPoint x="92.29050279329611" y="60.76190476190476" as="sourcePoint" />
            <mxPoint x="115.36312849162012" y="60.76190476190476" as="targetPoint" />
          </mxGeometry>
        </mxCell>
        <mxCell id="yUvTqXEQwM74-0tRDP1R-177" value="" style="group" vertex="1" connectable="0" parent="yUvTqXEQwM74-0tRDP1R-241">
          <mxGeometry x="311.4804469273743" y="565.7142857142857" width="126.89944134078213" height="94.28571428571428" as="geometry" />
        </mxCell>
        <mxCell id="yUvTqXEQwM74-0tRDP1R-178" value="" style="whiteSpace=wrap;html=1;aspect=fixed;" vertex="1" parent="yUvTqXEQwM74-0tRDP1R-177">
          <mxGeometry y="5.546218487394958" width="88.73949579831933" height="88.73949579831933" as="geometry" />
        </mxCell>
        <mxCell id="yUvTqXEQwM74-0tRDP1R-179" value="" style="endArrow=none;html=1;rounded=0;exitX=0;exitY=0.25;exitDx=0;exitDy=0;entryX=1;entryY=0.25;entryDx=0;entryDy=0;" edge="1" parent="yUvTqXEQwM74-0tRDP1R-177" source="yUvTqXEQwM74-0tRDP1R-178" target="yUvTqXEQwM74-0tRDP1R-178">
          <mxGeometry width="50" height="50" relative="1" as="geometry">
            <mxPoint x="26.715671861217295" y="83.19327731092436" as="sourcePoint" />
            <mxPoint x="93.50485151426054" y="27.73109243697479" as="targetPoint" />
          </mxGeometry>
        </mxCell>
        <mxCell id="yUvTqXEQwM74-0tRDP1R-180" value="UG5&lt;br&gt;" style="text;html=1;align=center;verticalAlign=middle;resizable=0;points=[];autosize=1;strokeColor=none;fillColor=none;" vertex="1" parent="yUvTqXEQwM74-0tRDP1R-177">
          <mxGeometry x="20.036753895912973" width="50" height="30" as="geometry" />
        </mxCell>
        <mxCell id="yUvTqXEQwM74-0tRDP1R-181" value="S:158, LST:182" style="text;html=1;align=center;verticalAlign=middle;resizable=0;points=[];autosize=1;strokeColor=none;fillColor=none;" vertex="1" parent="yUvTqXEQwM74-0tRDP1R-177">
          <mxGeometry x="-14.569148779770655" y="62.85221288515407" width="110" height="30" as="geometry" />
        </mxCell>
        <mxCell id="yUvTqXEQwM74-0tRDP1R-182" value="T:16, EST:24" style="text;html=1;align=center;verticalAlign=middle;resizable=0;points=[];autosize=1;strokeColor=none;fillColor=none;" vertex="1" parent="yUvTqXEQwM74-0tRDP1R-177">
          <mxGeometry x="-5.768156424581007" y="27.731092436974816" width="90" height="30" as="geometry" />
        </mxCell>
        <mxCell id="yUvTqXEQwM74-0tRDP1R-197" value="" style="endArrow=none;html=1;rounded=0;entryX=0.991;entryY=1.091;entryDx=0;entryDy=0;entryPerimeter=0;" edge="1" parent="yUvTqXEQwM74-0tRDP1R-177">
          <mxGeometry width="50" height="50" relative="1" as="geometry">
            <mxPoint y="60.76190476190476" as="sourcePoint" />
            <mxPoint x="97.12421787709505" y="59.92442577030817" as="targetPoint" />
          </mxGeometry>
        </mxCell>
        <mxCell id="yUvTqXEQwM74-0tRDP1R-185" value="" style="group" vertex="1" connectable="0" parent="yUvTqXEQwM74-0tRDP1R-241">
          <mxGeometry x="311.4804469273743" y="116.28571428571428" width="126.89944134078213" height="94.28571428571428" as="geometry" />
        </mxCell>
        <mxCell id="yUvTqXEQwM74-0tRDP1R-59" value="" style="group" vertex="1" connectable="0" parent="yUvTqXEQwM74-0tRDP1R-185">
          <mxGeometry width="126.89944134078213" height="94.28571428571428" as="geometry" />
        </mxCell>
        <mxCell id="yUvTqXEQwM74-0tRDP1R-60" value="" style="whiteSpace=wrap;html=1;aspect=fixed;" vertex="1" parent="yUvTqXEQwM74-0tRDP1R-59">
          <mxGeometry y="5.546218487394958" width="88.73949579831933" height="88.73949579831933" as="geometry" />
        </mxCell>
        <mxCell id="yUvTqXEQwM74-0tRDP1R-61" value="" style="endArrow=none;html=1;rounded=0;exitX=0;exitY=0.25;exitDx=0;exitDy=0;entryX=1;entryY=0.25;entryDx=0;entryDy=0;" edge="1" parent="yUvTqXEQwM74-0tRDP1R-59" source="yUvTqXEQwM74-0tRDP1R-60" target="yUvTqXEQwM74-0tRDP1R-60">
          <mxGeometry width="50" height="50" relative="1" as="geometry">
            <mxPoint x="26.715671861217295" y="83.19327731092436" as="sourcePoint" />
            <mxPoint x="93.50485151426054" y="27.73109243697479" as="targetPoint" />
          </mxGeometry>
        </mxCell>
        <mxCell id="yUvTqXEQwM74-0tRDP1R-62" value="UG1" style="text;html=1;align=center;verticalAlign=middle;resizable=0;points=[];autosize=1;strokeColor=none;fillColor=none;" vertex="1" parent="yUvTqXEQwM74-0tRDP1R-59">
          <mxGeometry x="20.036753895912973" width="50" height="30" as="geometry" />
        </mxCell>
        <mxCell id="yUvTqXEQwM74-0tRDP1R-65" value="S:171, LST:195" style="text;html=1;align=center;verticalAlign=middle;resizable=0;points=[];autosize=1;strokeColor=none;fillColor=none;" vertex="1" parent="yUvTqXEQwM74-0tRDP1R-59">
          <mxGeometry x="-14.569148779770655" y="62.85221288515407" width="110" height="30" as="geometry" />
        </mxCell>
        <mxCell id="yUvTqXEQwM74-0tRDP1R-64" value="T:3, EST:24" style="text;html=1;align=center;verticalAlign=middle;resizable=0;points=[];autosize=1;strokeColor=none;fillColor=none;" vertex="1" parent="yUvTqXEQwM74-0tRDP1R-59">
          <mxGeometry y="27.731092436974816" width="80" height="30" as="geometry" />
        </mxCell>
        <mxCell id="yUvTqXEQwM74-0tRDP1R-157" value="" style="endArrow=none;html=1;rounded=0;entryX=1;entryY=0.75;entryDx=0;entryDy=0;" edge="1" parent="yUvTqXEQwM74-0tRDP1R-185">
          <mxGeometry width="50" height="50" relative="1" as="geometry">
            <mxPoint y="57.61904761904762" as="sourcePoint" />
            <mxPoint x="97.71935589878414" y="57.4341736694676" as="targetPoint" />
          </mxGeometry>
        </mxCell>
        <mxCell id="yUvTqXEQwM74-0tRDP1R-186" value="" style="group" vertex="1" connectable="0" parent="yUvTqXEQwM74-0tRDP1R-241">
          <mxGeometry x="311.4804469273743" y="224.19047619047618" width="126.89944134078213" height="94.28571428571428" as="geometry" />
        </mxCell>
        <mxCell id="yUvTqXEQwM74-0tRDP1R-187" value="" style="group" vertex="1" connectable="0" parent="yUvTqXEQwM74-0tRDP1R-186">
          <mxGeometry width="126.89944134078213" height="94.28571428571428" as="geometry" />
        </mxCell>
        <mxCell id="yUvTqXEQwM74-0tRDP1R-188" value="" style="whiteSpace=wrap;html=1;aspect=fixed;" vertex="1" parent="yUvTqXEQwM74-0tRDP1R-187">
          <mxGeometry y="5.546218487394958" width="88.73949579831933" height="88.73949579831933" as="geometry" />
        </mxCell>
        <mxCell id="yUvTqXEQwM74-0tRDP1R-189" value="" style="endArrow=none;html=1;rounded=0;exitX=0;exitY=0.25;exitDx=0;exitDy=0;entryX=1;entryY=0.25;entryDx=0;entryDy=0;" edge="1" parent="yUvTqXEQwM74-0tRDP1R-187" source="yUvTqXEQwM74-0tRDP1R-188" target="yUvTqXEQwM74-0tRDP1R-188">
          <mxGeometry width="50" height="50" relative="1" as="geometry">
            <mxPoint x="26.715671861217295" y="83.19327731092436" as="sourcePoint" />
            <mxPoint x="93.50485151426054" y="27.73109243697479" as="targetPoint" />
          </mxGeometry>
        </mxCell>
        <mxCell id="yUvTqXEQwM74-0tRDP1R-190" value="UG2" style="text;html=1;align=center;verticalAlign=middle;resizable=0;points=[];autosize=1;strokeColor=none;fillColor=none;" vertex="1" parent="yUvTqXEQwM74-0tRDP1R-187">
          <mxGeometry x="20.036753895912973" width="50" height="30" as="geometry" />
        </mxCell>
        <mxCell id="yUvTqXEQwM74-0tRDP1R-191" value="S:171, LST:195" style="text;html=1;align=center;verticalAlign=middle;resizable=0;points=[];autosize=1;strokeColor=none;fillColor=none;" vertex="1" parent="yUvTqXEQwM74-0tRDP1R-187">
          <mxGeometry x="-14.569148779770655" y="62.85221288515407" width="110" height="30" as="geometry" />
        </mxCell>
        <mxCell id="yUvTqXEQwM74-0tRDP1R-192" value="T:3, EST:24" style="text;html=1;align=center;verticalAlign=middle;resizable=0;points=[];autosize=1;strokeColor=none;fillColor=none;" vertex="1" parent="yUvTqXEQwM74-0tRDP1R-187">
          <mxGeometry y="27.731092436974816" width="80" height="30" as="geometry" />
        </mxCell>
        <mxCell id="yUvTqXEQwM74-0tRDP1R-226" value="" style="endArrow=none;html=1;rounded=0;" edge="1" parent="yUvTqXEQwM74-0tRDP1R-187">
          <mxGeometry width="50" height="50" relative="1" as="geometry">
            <mxPoint x="92.29050279329611" y="57.61904761904762" as="sourcePoint" />
            <mxPoint x="115.36312849162012" y="57.61904761904762" as="targetPoint" />
          </mxGeometry>
        </mxCell>
        <mxCell id="yUvTqXEQwM74-0tRDP1R-193" value="" style="endArrow=none;html=1;rounded=0;entryX=1;entryY=0.75;entryDx=0;entryDy=0;" edge="1" parent="yUvTqXEQwM74-0tRDP1R-186">
          <mxGeometry width="50" height="50" relative="1" as="geometry">
            <mxPoint y="57.61904761904762" as="sourcePoint" />
            <mxPoint x="97.71935589878414" y="57.4341736694676" as="targetPoint" />
          </mxGeometry>
        </mxCell>
        <mxCell id="yUvTqXEQwM74-0tRDP1R-205" value="" style="endArrow=classic;startArrow=classic;html=1;rounded=0;entryX=0.015;entryY=0.787;entryDx=0;entryDy=0;entryPerimeter=0;exitX=-0.022;exitY=1.053;exitDx=0;exitDy=0;exitPerimeter=0;" edge="1" parent="yUvTqXEQwM74-0tRDP1R-241" source="yUvTqXEQwM74-0tRDP1R-15" target="yUvTqXEQwM74-0tRDP1R-22">
          <mxGeometry width="50" height="50" relative="1" as="geometry">
            <mxPoint x="147.66480446927375" y="287.04761904761904" as="sourcePoint" />
            <mxPoint x="151.12569832402238" y="51.33333333333333" as="targetPoint" />
            <Array as="points">
              <mxPoint x="126.89944134078213" y="287.04761904761904" />
              <mxPoint x="126.89944134078213" y="51.33333333333333" />
            </Array>
          </mxGeometry>
        </mxCell>
        <mxCell id="yUvTqXEQwM74-0tRDP1R-207" value="" style="endArrow=classic;html=1;rounded=0;entryX=0.04;entryY=-0.147;entryDx=0;entryDy=0;entryPerimeter=0;" edge="1" parent="yUvTqXEQwM74-0tRDP1R-241" target="yUvTqXEQwM74-0tRDP1R-93">
          <mxGeometry width="50" height="50" relative="1" as="geometry">
            <mxPoint x="242.26256983240225" y="52.38095238095238" as="sourcePoint" />
            <mxPoint x="299.94413407821236" as="targetPoint" />
          </mxGeometry>
        </mxCell>
        <mxCell id="yUvTqXEQwM74-0tRDP1R-208" value="" style="endArrow=classic;html=1;rounded=0;" edge="1" parent="yUvTqXEQwM74-0tRDP1R-241">
          <mxGeometry width="50" height="50" relative="1" as="geometry">
            <mxPoint x="403.77094972067044" y="52.38095238095238" as="sourcePoint" />
            <mxPoint x="461.45251396648047" y="52.38095238095238" as="targetPoint" />
          </mxGeometry>
        </mxCell>
        <mxCell id="yUvTqXEQwM74-0tRDP1R-215" value="" style="edgeStyle=none;orthogonalLoop=1;jettySize=auto;html=1;rounded=0;" edge="1" parent="yUvTqXEQwM74-0tRDP1R-241">
          <mxGeometry width="100" relative="1" as="geometry">
            <mxPoint x="560.6648044692738" y="167.61904761904762" as="sourcePoint" />
            <mxPoint x="595.2737430167598" y="167.61904761904762" as="targetPoint" />
            <Array as="points" />
          </mxGeometry>
        </mxCell>
        <mxCell id="yUvTqXEQwM74-0tRDP1R-221" value="" style="endArrow=classic;html=1;rounded=0;exitX=0.491;exitY=1.047;exitDx=0;exitDy=0;exitPerimeter=0;" edge="1" parent="yUvTqXEQwM74-0tRDP1R-241" source="yUvTqXEQwM74-0tRDP1R-128" target="yUvTqXEQwM74-0tRDP1R-118">
          <mxGeometry width="50" height="50" relative="1" as="geometry">
            <mxPoint x="761.3966480446928" y="555.2380952380953" as="sourcePoint" />
            <mxPoint x="819.0782122905028" y="502.85714285714283" as="targetPoint" />
          </mxGeometry>
        </mxCell>
        <mxCell id="yUvTqXEQwM74-0tRDP1R-211" value="" style="endArrow=classic;html=1;rounded=0;" edge="1" parent="yUvTqXEQwM74-0tRDP1R-241">
          <mxGeometry width="50" height="50" relative="1" as="geometry">
            <mxPoint x="426.8435754189944" y="387.6190476190476" as="sourcePoint" />
            <mxPoint x="519.1340782122905" y="387.6190476190476" as="targetPoint" />
          </mxGeometry>
        </mxCell>
        <mxCell id="yUvTqXEQwM74-0tRDP1R-225" value="" style="endArrow=none;html=1;rounded=0;entryX=1;entryY=0.5;entryDx=0;entryDy=0;exitX=0.987;exitY=1.091;exitDx=0;exitDy=0;exitPerimeter=0;" edge="1" parent="yUvTqXEQwM74-0tRDP1R-241" source="yUvTqXEQwM74-0tRDP1R-182" target="yUvTqXEQwM74-0tRDP1R-60">
          <mxGeometry width="50" height="50" relative="1" as="geometry">
            <mxPoint x="380.6983240223464" y="345.7142857142857" as="sourcePoint" />
            <mxPoint x="438.37988826815644" y="293.33333333333337" as="targetPoint" />
            <Array as="points">
              <mxPoint x="426.8435754189944" y="628.5714285714286" />
              <mxPoint x="426.8435754189944" y="167.61904761904762" />
            </Array>
          </mxGeometry>
        </mxCell>
        <mxCell id="yUvTqXEQwM74-0tRDP1R-227" value="" style="endArrow=none;html=1;rounded=0;exitX=1.06;exitY=0.504;exitDx=0;exitDy=0;exitPerimeter=0;" edge="1" parent="yUvTqXEQwM74-0tRDP1R-241" source="yUvTqXEQwM74-0tRDP1R-170">
          <mxGeometry width="50" height="50" relative="1" as="geometry">
            <mxPoint x="415.30726256983246" y="377.1428571428571" as="sourcePoint" />
            <mxPoint x="426.8435754189944" y="377.1428571428571" as="targetPoint" />
          </mxGeometry>
        </mxCell>
        <mxCell id="yUvTqXEQwM74-0tRDP1R-229" value="" style="endArrow=classic;html=1;rounded=0;exitX=0.442;exitY=1.08;exitDx=0;exitDy=0;exitPerimeter=0;" edge="1" parent="yUvTqXEQwM74-0tRDP1R-241" source="yUvTqXEQwM74-0tRDP1R-149" target="yUvTqXEQwM74-0tRDP1R-153">
          <mxGeometry width="50" height="50" relative="1" as="geometry">
            <mxPoint x="530.6703910614526" y="502.85714285714283" as="sourcePoint" />
            <mxPoint x="588.3519553072626" y="450.4761904761905" as="targetPoint" />
          </mxGeometry>
        </mxCell>
        <mxCell id="yUvTqXEQwM74-0tRDP1R-230" value="" style="endArrow=classic;startArrow=classic;html=1;rounded=0;exitX=0.106;exitY=0.073;exitDx=0;exitDy=0;exitPerimeter=0;" edge="1" parent="yUvTqXEQwM74-0tRDP1R-241" source="yUvTqXEQwM74-0tRDP1R-181">
          <mxGeometry width="50" height="50" relative="1" as="geometry">
            <mxPoint x="265.3351955307263" y="481.90476190476187" as="sourcePoint" />
            <mxPoint x="311.4804469273743" y="157.14285714285714" as="targetPoint" />
            <Array as="points">
              <mxPoint x="276.8715083798883" y="630.6666666666666" />
              <mxPoint x="276.8715083798883" y="157.14285714285714" />
            </Array>
          </mxGeometry>
        </mxCell>
        <mxCell id="yUvTqXEQwM74-0tRDP1R-232" value="" style="endArrow=none;html=1;rounded=0;" edge="1" parent="yUvTqXEQwM74-0tRDP1R-241">
          <mxGeometry width="50" height="50" relative="1" as="geometry">
            <mxPoint x="242.26256983240225" y="282.85714285714283" as="sourcePoint" />
            <mxPoint x="276.8715083798883" y="282.85714285714283" as="targetPoint" />
          </mxGeometry>
        </mxCell>
        <mxCell id="yUvTqXEQwM74-0tRDP1R-233" value="" style="endArrow=none;html=1;rounded=0;" edge="1" parent="yUvTqXEQwM74-0tRDP1R-241">
          <mxGeometry width="50" height="50" relative="1" as="geometry">
            <mxPoint x="276.8715083798883" y="157.14285714285714" as="sourcePoint" />
            <mxPoint x="276.8715083798883" y="52.38095238095238" as="targetPoint" />
          </mxGeometry>
        </mxCell>
        <mxCell id="yUvTqXEQwM74-0tRDP1R-234" value="" style="endArrow=classic;html=1;rounded=0;entryX=0;entryY=0.318;entryDx=0;entryDy=0;entryPerimeter=0;" edge="1" parent="yUvTqXEQwM74-0tRDP1R-241" target="yUvTqXEQwM74-0tRDP1R-192">
          <mxGeometry width="50" height="50" relative="1" as="geometry">
            <mxPoint x="276.8715083798883" y="261.90476190476187" as="sourcePoint" />
            <mxPoint x="334.55307262569835" y="209.52380952380952" as="targetPoint" />
          </mxGeometry>
        </mxCell>
        <mxCell id="yUvTqXEQwM74-0tRDP1R-235" value="" style="endArrow=classic;html=1;rounded=0;entryX=0;entryY=0.318;entryDx=0;entryDy=0;entryPerimeter=0;" edge="1" parent="yUvTqXEQwM74-0tRDP1R-241">
          <mxGeometry width="50" height="50" relative="1" as="geometry">
            <mxPoint x="276.8715083798883" y="385.5238095238095" as="sourcePoint" />
            <mxPoint x="311.4804469273743" y="385.5238095238095" as="targetPoint" />
          </mxGeometry>
        </mxCell>
        <mxCell id="yUvTqXEQwM74-0tRDP1R-236" value="" style="endArrow=classic;html=1;rounded=0;entryX=0;entryY=0.318;entryDx=0;entryDy=0;entryPerimeter=0;" edge="1" parent="yUvTqXEQwM74-0tRDP1R-241">
          <mxGeometry width="50" height="50" relative="1" as="geometry">
            <mxPoint x="276.8715083798883" y="490.80952380952374" as="sourcePoint" />
            <mxPoint x="311.4804469273743" y="490.80952380952374" as="targetPoint" />
          </mxGeometry>
        </mxCell>
        <mxCell id="yUvTqXEQwM74-0tRDP1R-237" value="" style="endArrow=classic;html=1;rounded=0;entryX=0;entryY=0.318;entryDx=0;entryDy=0;entryPerimeter=0;fillColor=#00FF00;" edge="1" parent="yUvTqXEQwM74-0tRDP1R-241">
          <mxGeometry width="50" height="50" relative="1" as="geometry">
            <mxPoint x="92.29050279329611" y="178.09523809523807" as="sourcePoint" />
            <mxPoint x="126.89944134078213" y="178.09523809523807" as="targetPoint" />
          </mxGeometry>
        </mxCell>
        <mxCell id="yUvTqXEQwM74-0tRDP1R-239" value="" style="endArrow=classic;html=1;rounded=0;exitX=0.069;exitY=-0.085;exitDx=0;exitDy=0;exitPerimeter=0;" edge="1" parent="yUvTqXEQwM74-0tRDP1R-241" source="yUvTqXEQwM74-0tRDP1R-135">
          <mxGeometry width="50" height="50" relative="1" as="geometry">
            <mxPoint x="634.4972067039106" y="450.4761904761905" as="sourcePoint" />
            <mxPoint x="611.4245810055867" y="398.0952380952381" as="targetPoint" />
          </mxGeometry>
        </mxCell>
        <mxCell id="yUvTqXEQwM74-0tRDP1R-240" value="" style="endArrow=classic;html=1;rounded=0;entryX=0.991;entryY=0.896;entryDx=0;entryDy=0;entryPerimeter=0;" edge="1" parent="yUvTqXEQwM74-0tRDP1R-241" target="yUvTqXEQwM74-0tRDP1R-155">
          <mxGeometry width="50" height="50" relative="1" as="geometry">
            <mxPoint x="726.7877094972067" y="622.2857142857143" as="sourcePoint" />
            <mxPoint x="692.1787709497207" y="597.1428571428571" as="targetPoint" />
          </mxGeometry>
        </mxCell>
      </root>
    </mxGraphModel>
  </diagram>
</mxfile>
